<svg width="26" height="22" viewBox="0 0 26 22" fill="none" xmlns="http://www.w3.org/2000/svg">
<g clip-path="url(#clip0)">
<path d="M25.7021 10.3917C25.7018 10.3914 25.7016 10.3911 25.7012 10.3909L20.3944 5.92212C19.9968 5.58735 19.3538 5.5886 18.958 5.92504C18.5623 6.26145 18.5638 6.80556 18.9614 7.14037L22.5244 10.1406H1.01562C0.454695 10.1406 0 10.5254 0 11C0 11.4746 0.454695 11.8594 1.01562 11.8594H22.5244L18.9615 14.8596C18.5639 15.1944 18.5624 15.7385 18.9581 16.0749C19.3538 16.4114 19.9969 16.4126 20.3944 16.0779L25.7013 11.6091C25.7016 11.6089 25.7018 11.6086 25.7022 11.6083C26.0999 11.2724 26.0987 10.7265 25.7021 10.3917Z" fill="black"/>
</g>
<defs>
<clipPath id="clip0">
<rect width="26" height="22" fill="white"/>
</clipPath>
</defs>
</svg>
