<svg width="26" height="25" viewBox="0 0 26 25" fill="none" xmlns="http://www.w3.org/2000/svg">
<path d="M25.85 4.6671C25.7011 4.4538 25.4616 4.32195 25.2015 4.31084L9.07345 3.61565C8.61071 3.5954 8.22401 3.95266 8.20423 4.41324C8.18456 4.87366 8.54123 5.26268 9.00177 5.28247L24.0379 5.93064L21.0815 15.1549H7.92506L5.54815 2.21282C5.4959 1.92917 5.30116 1.69253 5.03258 1.58716L1.13962 0.0577717C0.710562 -0.110208 0.226407 0.100537 0.0579039 0.529068C-0.110308 0.957831 0.100379 1.44228 0.5292 1.61078L3.99067 2.97061L6.40952 16.1398C6.48243 16.5357 6.82746 16.8233 7.23016 16.8233H7.6314L6.71517 19.3683C6.63848 19.5815 6.67007 19.8182 6.80058 20.0034C6.93091 20.1887 7.14288 20.2989 7.36916 20.2989H8.01181C7.6136 20.7421 7.36916 21.3256 7.36916 21.9673C7.36916 23.3474 8.49207 24.47 9.8718 24.47C11.2515 24.47 12.3744 23.3474 12.3744 21.9673C12.3744 21.3257 12.13 20.7421 11.7319 20.2989H17.1882C16.7898 20.7421 16.5455 21.3256 16.5455 21.9673C16.5455 23.3474 17.6681 24.47 19.0481 24.47C20.4282 24.47 21.5508 23.3474 21.5508 21.9673C21.5508 21.3257 21.3064 20.7421 20.9083 20.2989H21.6898C22.0738 20.2989 22.385 19.9877 22.385 19.6038C22.385 19.2197 22.0738 18.9086 21.6898 18.9086H8.3583L9.109 16.823H21.6898C22.0525 16.823 22.3735 16.5887 22.484 16.2435L25.9599 5.39866C26.0398 5.15114 25.9988 4.88053 25.85 4.6671ZM9.87186 23.0799C9.25842 23.0799 8.75954 22.5811 8.75954 21.9676C8.75954 21.3542 9.25842 20.8553 9.87186 20.8553C10.4853 20.8553 10.9841 21.3542 10.9841 21.9676C10.9841 22.5811 10.4853 23.0799 9.87186 23.0799ZM19.0481 23.0799C18.4347 23.0799 17.9359 22.5811 17.9359 21.9676C17.9359 21.3542 18.4347 20.8553 19.0481 20.8553C19.6616 20.8553 20.1604 21.3542 20.1604 21.9676C20.1604 22.5811 19.6616 23.0799 19.0481 23.0799Z" fill="white"/>
</svg>
