<svg width="26" height="26" viewBox="0 0 26 26" fill="none" xmlns="http://www.w3.org/2000/svg">
<path d="M25.85 5.43215C25.7011 5.21884 25.4616 5.087 25.2015 5.07588L9.07345 4.38069C8.61071 4.36045 8.22401 4.7177 8.20423 5.17829C8.18456 5.63871 8.54123 6.02773 9.00177 6.04751L24.0379 6.69569L21.0815 15.9199H7.92506L5.54815 2.97786C5.4959 2.69421 5.30116 2.45757 5.03258 2.3522L1.13962 0.822817C0.710562 0.654838 0.226407 0.865583 0.0579039 1.29411C-0.110308 1.72288 0.100379 2.20732 0.5292 2.37582L3.99067 3.73566L6.40952 16.9049C6.48243 17.3008 6.82746 17.5883 7.23016 17.5883H7.6314L6.71517 20.1333C6.63848 20.3465 6.67007 20.5833 6.80058 20.7685C6.93091 20.9537 7.14288 21.0639 7.36916 21.0639H8.01181C7.6136 21.5071 7.36916 22.0907 7.36916 22.7324C7.36916 24.1124 8.49207 25.235 9.8718 25.235C11.2515 25.235 12.3744 24.1124 12.3744 22.7324C12.3744 22.0907 12.13 21.5071 11.7319 21.0639H17.1882C16.7898 21.5071 16.5455 22.0907 16.5455 22.7324C16.5455 24.1124 17.6681 25.235 19.0481 25.235C20.4282 25.235 21.5508 24.1124 21.5508 22.7324C21.5508 22.0907 21.3064 21.5071 20.9083 21.0639H21.6898C22.0738 21.0639 22.385 20.7527 22.385 20.3688C22.385 19.9848 22.0738 19.6736 21.6898 19.6736H8.3583L9.109 17.5881H21.6898C22.0525 17.5881 22.3735 17.3537 22.484 17.0086L25.9599 6.16371C26.0398 5.91619 25.9988 5.64557 25.85 5.43215ZM9.87186 23.8449C9.25842 23.8449 8.75954 23.3461 8.75954 22.7327C8.75954 22.1192 9.25842 21.6203 9.87186 21.6203C10.4853 21.6203 10.9841 22.1192 10.9841 22.7327C10.9841 23.3461 10.4853 23.8449 9.87186 23.8449ZM19.0481 23.8449C18.4347 23.8449 17.9359 23.3461 17.9359 22.7327C17.9359 22.1192 18.4347 21.6203 19.0481 21.6203C19.6616 21.6203 20.1604 22.1192 20.1604 22.7327C20.1604 23.3461 19.6616 23.8449 19.0481 23.8449Z" fill="black"/>
</svg>
