<svg width="33" height="33" viewBox="0 0 33 33" fill="none" xmlns="http://www.w3.org/2000/svg">
<g clip-path="url(#clip0)">
<path d="M32.1749 14.289C32.1739 14.2882 32.1732 14.2872 32.1724 14.2865L18.711 0.825556C18.1372 0.251519 17.3743 -0.0644531 16.5629 -0.0644531C15.7514 -0.0644531 14.9886 0.251519 14.4145 0.825556L0.960164 14.2797C0.955633 14.2842 0.950849 14.289 0.946569 14.2935C-0.231717 15.4786 -0.229703 17.4014 0.952359 18.5834C1.49241 19.1237 2.20542 19.4364 2.96803 19.4694C2.99925 19.4724 3.03047 19.4739 3.06194 19.4739H3.59822V29.3801C3.59822 31.3406 5.19343 32.9356 7.15397 32.9356H12.4205C12.9545 32.9356 13.3873 32.5026 13.3873 31.9688V24.2022C13.3873 23.3077 14.1152 22.58 15.0097 22.58H18.1161C19.0106 22.58 19.7382 23.3077 19.7382 24.2022V31.9688C19.7382 32.5026 20.171 32.9356 20.705 32.9356H25.9715C27.9323 32.9356 29.5273 31.3406 29.5273 29.3801V19.4739H30.0248C30.836 19.4739 31.5989 19.158 32.1732 18.5837C33.3565 17.3999 33.357 15.4736 32.1749 14.289ZM30.8058 17.2166C30.5971 17.4253 30.3196 17.5403 30.0248 17.5403H28.5605C28.0265 17.5403 27.5937 17.9731 27.5937 18.5071V29.3801C27.5937 30.2744 26.8661 31.002 25.9715 31.002H21.6718V24.2022C21.6718 22.2417 20.0768 20.6464 18.1161 20.6464H15.0097C13.0489 20.6464 11.4537 22.2417 11.4537 24.2022V31.002H7.15397C6.25968 31.002 5.53181 30.2744 5.53181 29.3801V18.5071C5.53181 17.9731 5.09902 17.5403 4.56501 17.5403H3.12589C3.11079 17.5393 3.09593 17.5386 3.08058 17.5383C2.79255 17.5333 2.5224 17.419 2.31998 17.2163C1.88945 16.7858 1.88945 16.0851 2.31998 15.6543C2.32023 15.6543 2.32023 15.6541 2.32048 15.6538L2.32124 15.6531L15.7821 2.19267C15.9906 1.98395 16.2678 1.86914 16.5629 1.86914C16.8577 1.86914 17.1349 1.98395 17.3436 2.19267L30.8015 15.6503C30.8035 15.6523 30.8058 15.6543 30.8078 15.6563C31.2361 16.0876 31.2353 16.7868 30.8058 17.2166Z" fill="black"/>
</g>
<defs>
<clipPath id="clip0">
<rect width="33" height="33" fill="white"/>
</clipPath>
</defs>
</svg>
