<svg width="41" height="41" viewBox="0 0 41 41" fill="none" xmlns="http://www.w3.org/2000/svg">
<path d="M31.5556 12.7565L29.1612 12.9471C29.1492 12.9479 29.138 12.9487 29.126 12.9487C29.0436 12.9483 28.9632 12.924 28.8943 12.8787C28.8255 12.8335 28.7712 12.7693 28.7382 12.6938C28.7051 12.6184 28.6947 12.535 28.7081 12.4537C28.7215 12.3724 28.7582 12.2968 28.8137 12.236L30.2014 10.7225C29.6475 10.508 29.1564 10.1574 28.7737 9.7031L27.0992 11.7907C27.0585 11.8416 27.0028 11.8784 26.94 11.8958C26.8772 11.9133 26.8105 11.9106 26.7494 11.8881C26.6882 11.8657 26.6356 11.8245 26.5991 11.7705C26.5626 11.7166 26.544 11.6525 26.5459 11.5873L26.622 9.01603C26.4484 9.02153 26.2746 9.01081 26.103 8.98399C25.5866 8.90822 25.0959 8.70968 24.6721 8.40503C24.6721 8.40503 25.2342 10.7866 23.5125 13.8335C24.1019 14.8233 24.5455 16.5658 22.8711 18.9441C23.0128 19.327 23.1051 19.7263 23.1458 20.1325L23.153 20.1317C24.1489 19.1175 25.3548 18.3336 26.686 17.835L27.9849 16.4737C29.5728 14.4437 31.771 14.3236 31.771 14.3236L31.8182 13.0448C31.7213 12.9576 31.6334 12.861 31.5556 12.7565Z" fill="#B9C165"/>
<path d="M25.2761 13.4267C25.1598 13.4038 25.0392 13.4246 24.9373 13.485C24.8354 13.5454 24.7593 13.6412 24.7236 13.7542C24.54 14.3286 24.1102 15.3826 23.2581 16.1565L23.9041 16.8679C24.923 15.9426 25.4246 14.727 25.6411 14.0454C25.6617 13.9808 25.6684 13.9126 25.6609 13.8452C25.6533 13.7778 25.6316 13.7128 25.5971 13.6543C25.5626 13.5959 25.5162 13.5455 25.4609 13.5062C25.4056 13.467 25.3426 13.4399 25.2761 13.4267Z" fill="#959953"/>
<path d="M36.0568 9.53327C35.9067 9.41259 35.7822 9.26311 35.6908 9.09364L35.6796 9.07282C35.5816 8.88304 35.525 8.67462 35.5136 8.46135C35.5021 8.24807 35.536 8.03479 35.6131 7.83561C36.2209 6.21643 35.8582 4.30496 34.5401 3.25194C33.1892 2.17328 31.2841 2.20692 29.8491 3.20469C29.5528 3.41251 29.1867 3.49562 28.8297 3.43612C28.6463 3.40343 28.4711 3.33515 28.314 3.23512C26.9334 2.37188 25.0548 2.58168 24.021 3.86133C23.9978 3.89016 23.9746 3.91979 23.9521 3.94942C22.8318 5.43647 23.3003 7.4152 24.672 8.40496C25.0959 8.70961 25.5866 8.90815 26.103 8.98393C26.2746 9.01074 26.4484 9.02147 26.6219 9.01596V9.01516C27.3018 8.98953 27.6798 8.67803 27.8704 8.4426C27.8859 8.42285 27.9065 8.40771 27.93 8.39882C27.9536 8.38994 27.979 8.38763 28.0038 8.39216C28.0285 8.3967 28.0515 8.40789 28.0703 8.42454C28.0892 8.44119 28.1031 8.46266 28.1106 8.48664C28.2674 8.99314 28.537 9.45748 28.8992 9.84473C29.2613 10.232 29.7066 10.5321 30.2014 10.7224C30.563 10.8636 30.9406 10.9593 31.3257 11.0075C31.3504 11.0105 31.3739 11.0201 31.3935 11.0353C31.4132 11.0506 31.4283 11.0709 31.4374 11.094C31.4464 11.1172 31.449 11.1424 31.4449 11.1669C31.4407 11.1915 31.43 11.2144 31.4138 11.2333C31.2104 11.4768 31.0983 12.1406 31.5556 12.7564C31.6334 12.861 31.7213 12.9575 31.8182 13.0447L34.1645 15.3085H34.1677C35.0245 15.3061 36.0151 14.8264 36.6477 14.0873C36.6718 14.0585 36.6958 14.0297 36.719 14.0008C37.748 12.7132 37.4149 10.6496 36.0568 9.53327Z" fill="#81C83D"/>
<path d="M23.5125 13.8335C24.1019 14.8232 24.5455 16.5657 22.8711 18.9441C23.0128 19.3269 23.1051 19.7262 23.1458 20.1324C23.3051 21.4841 23.1169 23.7952 20.777 26.0326C20.3974 26.3946 19.9931 26.7299 19.5671 27.036H19.5663C19.9466 22.4058 17.9791 20.3775 16.5994 19.5334C16.2081 19.285 15.7812 19.0979 15.3333 18.9785C14.1818 15.3053 11.6513 15.2477 10.7512 15.3526V15.3502C10.664 12.4425 13.586 11.705 13.586 11.705C13.2625 9.21057 14.7912 7.50731 16.3191 6.45188C17.1014 5.91371 18.055 5.68357 18.9966 5.80565C19.9383 5.92774 20.8017 6.39345 21.4209 7.11333C22.6268 8.5235 23.6671 10.5599 22.7149 12.8894C23.0338 13.1552 23.3037 13.4747 23.5125 13.8335Z" fill="#F4F49E"/>
<path d="M19.0017 19.5334C18.6074 19.2838 18.1768 19.0966 17.7253 18.9785C16.5737 15.3053 14.0136 15.2477 13.1328 15.3526V15.3502C13.0527 12.4425 15.978 11.705 15.978 11.705C15.6544 9.21056 17.1883 7.5073 18.7162 6.45187C19.0186 6.24336 19.3494 6.07947 19.6985 5.96523C19.1356 5.78027 18.5376 5.72796 17.9511 5.81237C17.3647 5.89679 16.8057 6.11565 16.3178 6.45187C14.7899 7.5073 13.2515 9.21056 13.575 11.705C13.575 11.705 10.6504 12.4425 10.7304 15.3502V15.3526C11.6113 15.2477 14.1714 15.3053 15.3229 18.9785C15.7715 19.1075 16.1995 19.2994 16.5942 19.5486C17.9739 20.3927 19.9466 22.4219 19.5663 27.0664H19.5671C19.9957 26.7582 20.4003 26.4177 20.777 26.0478C21.2136 25.6313 21.6069 25.1717 21.9507 24.6759C21.6218 21.6856 20.1192 20.217 19.0017 19.5334Z" fill="#F4F49E"/>
<path d="M20.7963 13.9375C20.7374 13.9148 20.6746 13.9039 20.6116 13.9054C20.5485 13.907 20.4863 13.9209 20.4286 13.9465C20.3709 13.972 20.3189 14.0087 20.2753 14.0544C20.2318 14.1001 20.1977 14.1539 20.175 14.2128C19.8007 15.1829 18.7176 15.8224 17.9466 16.1697C18.8214 12.9425 19.6323 10.504 19.6431 10.4716C19.6637 10.4116 19.6722 10.3482 19.6681 10.2848C19.664 10.2215 19.6475 10.1597 19.6194 10.1028C19.5913 10.0459 19.5522 9.9952 19.5044 9.95351C19.4565 9.91183 19.4009 9.88002 19.3408 9.85993C19.2806 9.83985 19.2171 9.83187 19.1538 9.83647C19.0905 9.84107 19.0288 9.85815 18.9722 9.88673C18.9155 9.91531 18.8651 9.95482 18.8238 10.003C18.7825 10.0511 18.7512 10.107 18.7316 10.1673C18.7206 10.2003 17.8878 12.7047 16.9959 16.0042C16.4345 15.3166 15.7016 14.0652 16.0965 12.5256C16.1282 12.4021 16.1095 12.2712 16.0446 12.1615C15.9797 12.0518 15.8739 11.9724 15.7505 11.9407C15.627 11.9091 15.4961 11.9277 15.3864 11.9926C15.2767 12.0575 15.1973 12.1633 15.1657 12.2868C14.5468 14.6998 16.0926 16.5069 16.7038 17.1075C16.5095 17.8569 16.3161 18.635 16.1319 19.4251C16.1171 19.4867 16.1146 19.5506 16.1246 19.6132C16.1346 19.6758 16.1569 19.7357 16.1902 19.7897C16.2235 19.8436 16.2671 19.8904 16.3185 19.9274C16.37 19.9644 16.4282 19.9908 16.4899 20.0052C16.5516 20.0196 16.6156 20.0217 16.6781 20.0113C16.7406 20.0008 16.8004 19.9782 16.8541 19.9445C16.9078 19.9109 16.9543 19.867 16.991 19.8153C17.0276 19.7636 17.0537 19.7052 17.0677 19.6434C17.2519 18.8532 17.4454 18.0749 17.6398 17.3258C18.3807 17.0683 20.4299 16.2219 21.0716 14.5589C21.0943 14.5 21.1052 14.4372 21.1037 14.3741C21.1022 14.311 21.0882 14.2489 21.0627 14.1912C21.0371 14.1335 21.0004 14.0813 20.9547 14.0378C20.909 13.9943 20.8552 13.9602 20.7963 13.9375Z" fill="#F4F49E"/>
<path d="M38.0628 21.4433L26.6861 17.835C25.3549 18.3336 24.149 19.1175 23.153 20.1317L23.1458 20.1325C23.3052 21.4842 23.117 23.7952 20.7771 26.0326C20.7939 27.4668 21.1054 29.5344 21.7917 30.7965L34.8524 34.2446C36.9385 33.2196 38.5913 31.4363 39.328 29.126C40.2281 26.3033 39.8317 23.7063 38.0628 21.4433Z" fill="#CC443A"/>
<path d="M16.5994 19.5335C17.9791 20.3775 19.9466 22.4059 19.5663 27.036C19.5518 27.2228 19.5329 27.4134 19.5094 27.6077C19.3861 28.6472 19.5158 30.0037 19.6143 30.4673L11.2045 29.1965C10.1832 29.1112 9.16305 29.3737 8.30967 29.9412C7.64848 29.1061 7.12757 28.1689 6.76737 27.1665C2.24215 25.7571 3.91578 21.8982 3.91578 21.8982C1.73526 20.6321 1.31405 18.3859 1.40694 16.5345C1.45767 15.5872 1.85756 14.6923 2.5294 14.0225C3.20125 13.3527 4.09742 12.9556 5.04488 12.9078C6.9011 12.8157 9.15449 13.2353 10.4253 15.4094C10.5326 15.3832 10.6415 15.3642 10.7513 15.3526C11.6513 15.2477 14.1818 15.3053 15.3333 18.9785C15.7812 19.0979 16.2081 19.285 16.5994 19.5335Z" fill="#F4F49E"/>
<path d="M9.16971 27.1665C4.64449 25.7571 6.31813 21.8981 6.31813 21.8981C4.1376 20.6321 3.71639 18.3859 3.80928 16.5345C3.85386 15.7008 4.16925 14.9043 4.70759 14.2661C5.24593 13.6279 5.97781 13.1828 6.79211 12.9983C6.2146 12.9059 5.62886 12.8755 5.04488 12.9078C4.09742 12.9556 3.20125 13.3527 2.5294 14.0225C1.85756 14.6922 1.45767 15.5872 1.40694 16.5345C1.31405 18.3859 1.73526 20.6321 3.91578 21.8981C3.91578 21.8981 2.24215 25.7571 6.76737 27.1665C7.12757 28.1689 7.64848 29.106 8.30967 29.9412C8.87725 29.5658 9.52104 29.3211 10.1946 29.2246C9.77268 28.5816 9.42863 27.8907 9.16971 27.1665Z" fill="#F4F49E"/>
<path d="M17.5211 30.1309C16.9147 29.5759 16.2906 28.9525 15.6633 28.2876C15.8516 27.5087 16.2679 25.2895 15.3447 23.7803C15.2779 23.6723 15.1711 23.5951 15.0475 23.5657C14.924 23.5362 14.7938 23.5569 14.6854 23.6232C14.5771 23.6895 14.4994 23.7959 14.4693 23.9193C14.4392 24.0427 14.4593 24.173 14.525 24.2817C15.0835 25.1946 14.9986 26.5372 14.8574 27.4133C13.551 25.9651 12.2565 24.3848 11.1017 22.9075C11.3538 22.1507 11.9179 20.0423 10.9896 18.5241C10.9231 18.4154 10.8161 18.3376 10.6923 18.3077C10.5684 18.2779 10.4377 18.2985 10.329 18.365C10.2203 18.4315 10.1424 18.5384 10.1126 18.6623C10.0828 18.7862 10.1033 18.9169 10.1698 19.0256C10.7084 19.9064 10.5627 21.1396 10.37 21.9609C8.3423 19.3118 6.89769 17.2007 6.86878 17.1582C6.83324 17.1061 6.78777 17.0615 6.73498 17.0269C6.68219 16.9924 6.62311 16.9685 6.56112 16.9568C6.49912 16.9451 6.43542 16.9457 6.37365 16.9586C6.31188 16.9714 6.25326 16.9964 6.20113 17.0319C6.14899 17.0675 6.10437 17.1129 6.06981 17.1657C6.03525 17.2185 6.01142 17.2776 5.99969 17.3396C5.98796 17.4016 5.98856 17.4653 6.00144 17.527C6.01433 17.5888 6.03926 17.6474 6.0748 17.6996C6.10427 17.7428 7.589 19.9128 9.67031 22.6264C8.78193 22.653 7.32835 22.4734 6.33906 21.2143C6.26033 21.1141 6.14502 21.0493 6.0185 21.0341C5.89198 21.0189 5.76461 21.0546 5.6644 21.1333C5.5642 21.212 5.49938 21.3274 5.4842 21.4539C5.46902 21.5804 5.50472 21.7078 5.58344 21.808C6.75707 23.3018 8.41765 23.5877 9.5172 23.5877C9.80243 23.588 10.0873 23.5686 10.3699 23.5295C11.557 25.0467 12.8901 26.6714 14.2352 28.1563C13.3047 28.3245 11.6871 28.4144 10.5489 27.369C10.5026 27.3254 10.4481 27.2915 10.3886 27.2691C10.3291 27.2467 10.2657 27.2364 10.2021 27.2387C10.1386 27.241 10.0761 27.2559 10.0184 27.2825C9.96064 27.3092 9.90875 27.347 9.86573 27.3938C9.82271 27.4407 9.78942 27.4956 9.76778 27.5554C9.74615 27.6152 9.73659 27.6787 9.73968 27.7422C9.74277 27.8057 9.75844 27.868 9.78578 27.9254C9.81311 27.9828 9.85158 28.0342 9.89894 28.0767C10.8808 28.9786 12.096 29.2227 13.1245 29.2227C13.7545 29.2196 14.3816 29.1358 14.9903 28.9731C15.6256 29.6458 16.2579 30.2768 16.8729 30.8398C16.9193 30.8835 16.9739 30.9175 17.0335 30.9399C17.0931 30.9623 17.1566 30.9727 17.2203 30.9703C17.2839 30.968 17.3465 30.953 17.4043 30.9262C17.4621 30.8995 17.514 30.8615 17.557 30.8145C17.6 30.7675 17.6332 30.7125 17.6548 30.6525C17.6763 30.5925 17.6857 30.5289 17.6824 30.4653C17.6791 30.4017 17.6632 30.3394 17.6356 30.282C17.6079 30.2245 17.5692 30.1732 17.5216 30.1309H17.5211Z" fill="#F4F49E"/>
<path d="M27.9849 16.4737C28.1713 16.4933 28.3594 16.4915 28.5454 16.4681C30.8861 16.1806 31.8711 17.5259 31.8711 17.5259C31.96 16.5682 32.0032 15.3005 31.771 14.3236C31.7165 14.0816 31.6343 13.8468 31.5259 13.6237C31.4976 13.5673 31.4829 13.5052 31.483 13.4421C31.483 13.3791 31.4979 13.3169 31.5263 13.2606C31.5547 13.2043 31.5959 13.1555 31.6466 13.118C31.6973 13.0805 31.7561 13.0554 31.8182 13.0447C32.3908 12.9446 33.1611 12.5226 33.5007 12.6203C33.8154 12.7108 34.1317 13.8287 34.1645 15.3085C34.1907 16.3809 34.0646 17.4516 33.7897 18.4884L33.7986 18.4908C33.7986 18.4908 35.5955 17.6732 37.3396 19.2564C38.2669 20.0972 39.3728 19.9178 39.9453 19.7385C39.972 19.7298 40.0008 19.7299 40.0275 19.7387C40.0541 19.7475 40.0773 19.7645 40.0936 19.7874C40.1099 19.8102 40.1185 19.8376 40.1182 19.8657C40.1179 19.8938 40.1087 19.921 40.0919 19.9435C39.762 20.3759 39.0917 21.0918 38.0627 21.4433C37.2035 21.7372 36.0944 21.7757 34.7243 21.1831C34.6913 21.1685 34.6545 21.1649 34.6194 21.173C34.5843 21.181 34.5527 21.2002 34.5294 21.2278C34.5061 21.2553 34.4924 21.2896 34.4903 21.3256C34.4882 21.3616 34.4978 21.3972 34.5177 21.4273C34.9422 22.0639 35.2989 22.7432 35.5819 23.4541C35.8902 24.226 35.6283 24.7441 35.3593 25.0412C35.3222 25.0828 35.276 25.1152 35.2242 25.1358C35.1725 25.1563 35.1167 25.1646 35.0612 25.1598C35.0057 25.1551 34.9521 25.1375 34.9046 25.1084C34.8571 25.0794 34.817 25.0396 34.7875 24.9924C34.4163 24.3901 33.8911 23.8978 33.266 23.5662C31.9487 22.8735 31.8174 21.694 31.8046 21.4337C31.8044 21.4302 31.8032 21.4267 31.801 21.4239C31.7988 21.4211 31.7958 21.419 31.7924 21.418C31.789 21.4169 31.7853 21.4169 31.7819 21.418C31.7785 21.4191 31.7755 21.4213 31.7734 21.4241C31.6172 21.6315 30.8501 22.5252 29.3742 22.3322C28.6713 22.2434 27.9574 22.3432 27.3058 22.6213C27.2545 22.6429 27.1989 22.6523 27.1433 22.6487C27.0877 22.645 27.0338 22.6285 26.9857 22.6003C26.9377 22.5722 26.8969 22.5332 26.8665 22.4865C26.8362 22.4399 26.8171 22.3867 26.8109 22.3314C26.7629 21.9342 26.8502 21.36 27.5485 20.9076C28.1913 20.4902 28.8759 20.1411 29.5912 19.8658C29.6249 19.8528 29.6535 19.8293 29.6727 19.7987C29.6918 19.7681 29.7005 19.7322 29.6975 19.6962C29.6944 19.6602 29.6797 19.6262 29.6556 19.5994C29.6316 19.5725 29.5994 19.5541 29.564 19.5471C28.101 19.242 27.2169 18.5701 26.686 17.835C26.051 16.9565 25.9189 15.9876 25.9004 15.4455C25.8996 15.4174 25.9077 15.3898 25.9236 15.3667C25.9394 15.3435 25.9622 15.326 25.9887 15.3167C26.0151 15.3073 26.0439 15.3066 26.0708 15.3146C26.0977 15.3227 26.1213 15.339 26.1383 15.3614C26.445 15.7618 27.0576 16.3784 27.9849 16.4737Z" fill="#49C160"/>
<path d="M33.7882 32.5293L11.2045 29.1164C10.1832 29.0311 9.16308 29.2936 8.3097 29.8611C7.70845 30.2582 7.20321 30.7842 6.83066 31.401C7.14566 31.8709 7.369 32.3961 7.4889 32.9489C7.59826 33.4733 7.59635 34.0148 7.48329 34.5385C7.36971 35.0872 7.13919 35.6051 6.80743 36.0567C7.61062 37.4149 9.06804 38.3518 10.7176 38.3878C10.8801 38.3921 11.0426 38.3873 11.2045 38.3734L21.7917 36.8439L33.7793 35.1118C34.0899 35.067 34.3739 34.9118 34.5793 34.6746C34.7856 34.4378 34.8989 34.1342 34.898 33.8202C34.8983 33.5077 34.7864 33.2056 34.5827 32.9687C34.379 32.7318 34.0971 32.5759 33.7882 32.5293Z" fill="#AF4848"/>
<path d="M3.52985 30.3888L6.68653 31.6557C6.47681 32.0546 6.32526 32.4815 6.23649 32.9233L4.82151 32.8937L2.85319 32.0673C2.74202 32.0235 2.6406 31.9582 2.55481 31.8751C2.46901 31.7919 2.40052 31.6926 2.3533 31.5829C2.30607 31.4732 2.28105 31.3552 2.27966 31.2357C2.27828 31.1162 2.30057 30.9977 2.34524 30.8869C2.38991 30.7761 2.45608 30.6752 2.53993 30.5901C2.62378 30.505 2.72365 30.4374 2.83378 30.3911C2.94392 30.3448 3.06213 30.3207 3.1816 30.3203C3.30106 30.32 3.41943 30.3432 3.52985 30.3888Z" fill="#F4F49E"/>
<path d="M6.6753 35.8182L3.52983 37.0802C3.30667 37.1696 3.05721 37.1669 2.83601 37.0728C2.61481 36.9787 2.43988 36.8008 2.34948 36.5781C2.30493 36.4678 2.28263 36.3498 2.28386 36.2309C2.28509 36.112 2.30982 35.9945 2.35663 35.8852C2.40345 35.7758 2.47142 35.6768 2.55663 35.5939C2.64185 35.5109 2.74263 35.4456 2.85317 35.4018L4.87514 34.585L6.23647 34.5609C6.32228 34.9987 6.47004 35.4221 6.6753 35.8182Z" fill="#F4F49E"/>
<path d="M10.6751 37.6077C10.2567 37.3245 9.9421 36.9124 9.7791 36.4342C9.61609 35.9559 9.61357 35.4376 9.77193 34.9577C9.81731 34.8201 9.85527 34.6802 9.88564 34.5385C9.9987 34.0148 10.0006 33.4733 9.89125 32.9489C9.86295 32.8124 9.82754 32.6774 9.78514 32.5446C9.62623 32.061 9.62896 31.5387 9.79293 31.0568C9.9569 30.5748 10.2732 30.1593 10.6941 29.8729L10.712 29.8611C11.1316 29.5842 11.5933 29.3773 12.0792 29.2486L11.2045 29.1164C10.1832 29.0311 9.16308 29.2936 8.3097 29.8611C7.70846 30.2582 7.20321 30.7842 6.83066 31.401C7.14566 31.8709 7.369 32.3961 7.4889 32.9489C7.59826 33.4733 7.59635 34.0148 7.48329 34.5385C7.36971 35.0872 7.13919 35.6051 6.80743 36.0567C7.61062 37.4149 9.06804 38.3518 10.7177 38.3878C10.8801 38.3921 11.0426 38.3873 11.2045 38.3734L12.0918 38.2453C11.587 38.114 11.1081 37.8985 10.6751 37.6077Z" fill="#934444"/>
<path d="M6.83063 31.401C6.77938 31.4843 6.73213 31.5692 6.68649 31.6557C6.47677 32.0546 6.32522 32.4815 6.23645 32.9233V34.5609C6.32226 34.9987 6.47002 35.422 6.67528 35.8181C6.71772 35.899 6.76176 35.9791 6.80741 36.0568C7.13917 35.6051 7.36969 35.0873 7.48327 34.5385L7.48887 32.9489C7.36897 32.3961 7.14563 31.8709 6.83063 31.401Z" fill="#963B3B"/>
<path d="M7.48888 32.9489L1.78812 32.8312C1.66708 32.8276 1.54654 32.8483 1.43366 32.8922C1.32078 32.936 1.21784 33.0021 1.13095 33.0864C1.04405 33.1707 0.974974 33.2717 0.927802 33.3832C0.88063 33.4947 0.856323 33.6146 0.856323 33.7357C0.856323 33.8568 0.88063 33.9767 0.927802 34.0882C0.974974 34.1997 1.04405 34.3006 1.13095 34.385C1.21784 34.4693 1.32078 34.5354 1.43366 34.5792C1.54654 34.623 1.66708 34.6438 1.78812 34.6402L7.48328 34.5385C7.59634 34.0149 7.59824 33.4733 7.48888 32.9489Z" fill="#F4F49E"/>
<path d="M10.7305 34.8437C10.603 34.8437 10.4808 34.8943 10.3907 34.9844C10.3006 35.0745 10.25 35.1967 10.25 35.3242V38.3511C10.4094 38.3718 10.5698 38.384 10.7305 38.3877C10.8908 38.392 11.0512 38.3873 11.2109 38.3736V35.3242C11.2109 35.1967 11.1603 35.0745 11.0702 34.9844C10.9801 34.8943 10.8579 34.8437 10.7305 34.8437Z" fill="#723737"/>
<path d="M14.7344 32.5404C14.7344 32.6678 14.785 32.79 14.8751 32.8801C14.9652 32.9702 15.0874 33.0208 15.2148 33.0208C15.3423 33.0208 15.4645 32.9702 15.5546 32.8801C15.6447 32.79 15.6953 32.6678 15.6953 32.5404V29.793L14.7542 29.6508C14.7411 29.6948 14.7344 29.7405 14.7344 29.7865V32.5404Z" fill="#723737"/>
<path d="M18.2578 32.594C18.1304 32.594 18.0082 32.6446 17.9181 32.7348C17.828 32.8249 17.7773 32.9471 17.7773 33.0745V35.0436C17.7773 35.171 17.828 35.2933 17.9181 35.3834C18.0082 35.4735 18.1304 35.5241 18.2578 35.5241C18.3852 35.5241 18.5075 35.4735 18.5976 35.3834C18.6877 35.2933 18.7383 35.171 18.7383 35.0436V33.0745C18.7383 32.9471 18.6877 32.8249 18.5976 32.7348C18.5075 32.6446 18.3852 32.594 18.2578 32.594Z" fill="#723737"/>
<path d="M21.7813 34.3354C21.6538 34.3354 21.5316 34.3861 21.4415 34.4762C21.3514 34.5663 21.3008 34.6885 21.3008 34.8159V36.8635C21.3026 36.8801 21.3053 36.8966 21.3088 36.9129L21.7842 36.8439L22.262 36.7745V34.8159C22.262 34.7528 22.2496 34.6903 22.2254 34.632C22.2013 34.5737 22.1659 34.5207 22.1212 34.4761C22.0766 34.4314 22.0235 34.3961 21.9652 34.3719C21.9069 34.3478 21.8444 34.3354 21.7813 34.3354Z" fill="#723737"/>
<path d="M25.3848 33.134C25.3848 33.2614 25.4354 33.3836 25.5255 33.4737C25.6156 33.5638 25.7378 33.6144 25.8652 33.6144C25.9927 33.6144 26.1149 33.5638 26.205 33.4737C26.2951 33.3836 26.3457 33.2614 26.3457 33.134V31.4099L25.4038 31.2675C25.3913 31.3107 25.3849 31.3554 25.3848 31.4004V33.134Z" fill="#723737"/>
<path d="M30.2695 34.2574C30.1421 34.2574 30.0199 34.308 29.9298 34.3981C29.8397 34.4882 29.7891 34.6105 29.7891 34.7379V35.6082C29.7893 35.6329 29.7914 35.6576 29.7953 35.682L30.75 35.5438V34.7379C30.75 34.6105 30.6994 34.4882 30.6093 34.3981C30.5192 34.308 30.397 34.2574 30.2695 34.2574Z" fill="#723737"/>
</svg>
