<svg width="33" height="33" viewBox="0 0 33 33" fill="none" xmlns="http://www.w3.org/2000/svg">
<g clip-path="url(#clip0)">
<path d="M16.4743 0C11.1219 0 6.76758 4.35436 6.76758 9.70674V23.2933C6.76758 28.6456 11.1219 33 16.4743 33C21.8267 33 26.1811 28.6456 26.1811 23.2933V9.70674C26.1811 4.35436 21.8267 0 16.4743 0ZM24.2011 23.2933C24.2011 27.5537 20.7348 31.0201 16.4743 31.0201C12.2139 31.0201 8.7475 27.5537 8.7475 23.2933V9.70674C8.7475 5.44629 12.2139 1.97992 16.4743 1.97992C20.7348 1.97992 24.2011 5.44629 24.2011 9.70674V23.2933Z" fill="#A5A5A5"/>
<path d="M16.4746 6.56464C15.9277 6.56464 15.4846 7.00775 15.4846 7.5546V12.1111C15.4846 12.6577 15.9277 13.1011 16.4746 13.1011C17.0212 13.1011 17.4645 12.6577 17.4645 12.1111V7.5546C17.4645 7.00775 17.0214 6.56464 16.4746 6.56464Z" fill="#A5A5A5"/>
</g>
<defs>
<clipPath id="clip0">
<rect width="33" height="33" fill="white"/>
</clipPath>
</defs>
</svg>
