<svg width="26" height="13" viewBox="0 0 26 13" fill="none" xmlns="http://www.w3.org/2000/svg">
<path d="M25.7021 5.57796C25.7018 5.57766 25.7015 5.5773 25.7012 5.577L20.3944 0.295747C19.9968 -0.09989 19.3537 -0.0984177 18.958 0.299199C18.5623 0.696766 18.5638 1.33981 18.9614 1.7355L22.5244 5.28125H1.01562C0.454695 5.28125 0 5.73594 0 6.29687C0 6.8578 0.454695 7.3125 1.01562 7.3125H22.5244L18.9615 10.8582C18.5639 11.2539 18.5624 11.897 18.9581 12.2945C19.3538 12.6922 19.9969 12.6936 20.3944 12.298L25.7012 7.01674C25.7015 7.01644 25.7018 7.01609 25.7022 7.01578C26.0999 6.61877 26.0987 5.97365 25.7021 5.57796Z" fill="white"/>
</svg>
